<svg version="1.2" xmlns="http://www.w3.org/2000/svg" viewBox="0 0 128 128" width="128" height="128">
	<style>
		.s0 { fill: #b70a4f } 
	</style>
	<g id="Layer 1">
		<path id="Téléciné" class="s0" aria-label="Téléciné"  d="m4.4 62.6l3.6-0.7 2.3-11.9c0.3-1.3 0.7-2.8 1.2-4.1l-4.6 7.5 1.9-10.2 1.8-0.4c0.2 0 1-0.2 1.5-0.4 0.5-0.1 0.9-0.2 1.5-0.5l-1.5 3c0.6-0.6 1-0.8 1.9-0.9l2.4-0.6 0.6-3.7c-1.4 0.1-1.8 0.3-2.8 1.3 0 0-0.1 0.1-0.2 0.3l0.6-2.9-6.4 1.3c-0.9 0.2-1.6 0.5-2.6 1 0.1-0.2 0.1-0.4 0.2-0.5l0.4-0.8c0.2-0.4 0.3-0.8 0.5-1.4-0.7 0.3-1.4 0.5-2.3 0.6l-6.3 1.2-0.6 3.8 5.2-1.1-0.7 3.2c1.4-1 1.9-1.3 3.2-1.7l-3.2 16.8 4.7-7.1c-0.7 1.5-1 2.6-1.2 3.5zm14.3-2.4l1.3-1.5c0.5 2.6 1.6 3.7 3.8 3.7 1 0 1.9-0.3 3.5-0.9l-1.4 2.6c2.2-0.4 3.3-0.8 4.5-1.6 1.8-1.2 3.2-2.9 3.9-4.8l-3.4 0.4c-1 1.5-1.7 2.1-3.1 2.6l2.6-4.3-1.6 0.2c-1 1.7-2.2 2.5-3.6 2.5-1.2 0-1.9-1-1.9-2.5 0-0.1 0-0.4 0-0.6l8.6-1.7-0.3 0.4-0.8 1.8 4.2-0.9c0.2-1.1 0.2-1.8 0.2-2.7 0-0.9 0-1.6-0.2-2.9l-2.1 2.8c-0.1-4.8-1.2-6.8-3.8-6.8-0.4 0-0.6 0-1.3 0.2l0.7-1.3c-0.8-0.2-1.2-0.3-1.8-0.3-2.5 0-5.2 1.7-6.9 4.4-1.4 2.3-2.2 5-2.2 7.3 0 1.4 0.3 2.5 1.1 3.9zm5.9-9.2l-3.2 0.5c0.7-2.2 2.2-3.5 3.9-3.5 0.5 0 0.8 0 1.4 0.3l-1.1 1.9c0.8-0.7 1.3-0.9 2-0.9 0.7 0 1.4 0.4 1.7 1 0.2 0.4 0.2 0.7 0.3 1.6l-5.8 1zm-3.5 6.1c-0.3-1-0.3-1.4-0.3-2.1 0-0.1 0-0.2 0-0.3l2.3-0.5zm4.2-14.8l1.7-0.3c1.2-1.4 2.2-2.9 3-4.8l-2.9 0.7zm1.8 1.3l2.6-0.4 4.1-5-4.6 1zm15.6 19.1l0.8-5c0.2-1.1 0.5-2.4 0.9-4-1.4 1.8-2.6 3.6-3.8 5.5l2.9-15.4c0.1-0.4 0.3-1.4 0.4-1.9 0.1-0.7 0.1-1 0.3-1.6l-0.7 0.3-2.8 4.2 0.1-0.7c0.1-0.4 0.2-0.8 0.2-1l0.2-0.9 0.1-0.6 0.5-2.8-3.6 0.8-1.4 8.5-0.1 0.6-0.2 1c0 0.2-0.1 0.7-0.2 1.3l-0.1 0.6 3.8-5.8c-0.4 1.7-0.8 3.4-1 4.1l-2.1 12.2 2.8-0.7-0.4 2.1zm4-2.5l1.2-1.5c0.5 2.6 1.6 3.7 3.8 3.7 1 0 2-0.2 3.6-0.8l-1.4 2.5c2.1-0.4 3.2-0.8 4.4-1.5 1.8-1.3 3.2-3 4-4.9l-3.4 0.4c-1.1 1.6-1.8 2.2-3.2 2.6l2.6-4.3-1.6 0.2c-1 1.7-2.1 2.5-3.5 2.5-1.3 0-2-0.9-2-2.5 0-0.1 0-0.4 0-0.6l8.6-1.7-0.3 0.4-0.8 1.9 4.2-0.9c0.2-1.1 0.3-1.8 0.3-2.8 0-0.9-0.1-1.6-0.3-2.9l-2.1 2.9c0-4.9-1.1-6.9-3.7-6.9-0.4 0-0.7 0-1.3 0.2l0.6-1.3c-0.7-0.2-1.2-0.2-1.8-0.2-2.5 0-5.1 1.6-6.8 4.4-1.4 2.2-2.2 4.9-2.2 7.2 0 1.5 0.2 2.5 1.1 3.9zm5.8-9.2l-3.2 0.5c0.7-2.2 2.2-3.5 4-3.5 0.4 0 0.7 0.1 1.3 0.3l-1.1 1.9c0.9-0.7 1.3-0.9 2-0.9 0.8 0 1.5 0.4 1.8 1 0.1 0.4 0.2 0.7 0.2 1.6l-5.8 1.1zm-3.4 6.1c-0.4-1.1-0.4-1.4-0.4-2.2 0 0 0-0.1 0-0.3l2.3-0.5zm4.2-14.8l1.8-0.3c1.1-1.3 2.1-2.9 3-4.7l-3 0.6zm1.8 1.3l2.6-0.4 4.1-5-4.6 1zm23.2 13.8c-0.7 2.1-2.1 3.2-4.3 3.3l2.8-4.8-0.8 0.2c-0.5 0.8-0.7 1.1-1 1.6-0.6 0.9-1.6 1.5-2.5 1.5-1.2 0-1.9-0.9-1.9-2.5 0-3.8 2.1-7.1 4.4-7.1 0.9 0 1.4 0.6 1.6 2l3.5-0.8c-0.1-1.3-0.2-1.9-0.5-2.6-0.5-1.2-1.8-2.1-3.2-2.1-0.9 0-1.7 0.3-3 0.9l1.3-2.4c-2.5 0.2-4.2 0.8-5.7 2.2-2.7 2.3-4.4 6-4.4 9.3 0 1.2 0.1 2.1 0.6 3.6l2-2.7c0 0.5-0.1 0.7-0.1 1.1 0 2.8 1.5 4.7 3.8 4.7 0.7 0 1.2-0.1 2.2-0.5l-0.9 1.7c0.3 0.1 0.6 0.1 0.8 0.1 3.9 0 7.1-2.8 8.5-7.2zm0.1-4c0.6-0.3 0.9-0.5 1.5-0.6l2.4-0.6v-0.1c0-1.2-0.2-2.2-0.7-3.2zm-5.7-5.4l-4.5 7.4c0-0.3 0-0.4 0-0.6 0-1.6 0.7-3.7 1.8-5.1 0.8-1 1.6-1.5 2.7-1.7zm16.8-2l-3.4 0.6-3 15h0.7l3.4-5.1-0.2 0.7c-0.7 1.9-0.9 2.7-1.1 3.7l-0.4 2.2 3.3-0.6 2-9.2c0.2-1.1 0.5-2 0.7-2.7l-3.9 5.4zm-5.3-3.1l2.8-0.5-0.5 2 3.4-0.7 0.7-3.6-2.5 0.4-0.4 0.9 0.5-2.8-3.4 0.6zm-0.5 2.4l-0.6 3 2.6-3.4zm11.9 1.5l-2.8 15.2 3.9-5.6-0.2 0.5c-0.3 1.3-0.5 2.3-0.7 3.3l-0.6 3.3 3.5-0.8 1.4-7.5 0.1-0.8c0.3-1.7 0.7-2.6 1.4-3.3 0.6-0.6 1.4-1 2.1-1 0.8 0 1.2 0.5 1.2 1.5 0 0.4 0 1-0.1 1.5l-1 5.8 3.8-5.6c-0.3 1-0.6 2.3-0.8 3l-0.1 0.5-1.2 6.4 3.4-0.7 1.6-9c0.2-1.1 0.3-2 0.3-2.7 0-0.7-0.1-1.3-0.3-2.1l-2.4 3.7 0.3-1.9c0-0.4 0.1-0.8 0.1-1.2 0-1.9-1.1-3-2.7-3-1.2 0-2.4 0.5-3.4 1.4-0.5 0.6-0.8 0.9-1.8 2.1l-3.4 5.8 0.6-2.8c0.5-2.4 1.6-3.7 3.5-4.3l2.1-3.8c-2.4 0.5-3.1 1-4.7 3l0.1-1.6zm18.1 13.4l1.2-1.5c0.5 2.6 1.6 3.7 3.8 3.7 1 0 2-0.3 3.6-0.9l-1.5 2.6c2.2-0.4 3.3-0.8 4.5-1.6 1.8-1.2 3.2-2.9 4-4.8l-3.5 0.3c-1 1.6-1.7 2.2-3.1 2.7l2.6-4.3-1.6 0.2c-1 1.7-2.1 2.5-3.6 2.5-1.2 0-1.9-1-1.9-2.5 0-0.2 0-0.4 0-0.6l8.6-1.7-0.3 0.4-0.8 1.8 4.2-0.9c0.2-1.1 0.3-1.8 0.3-2.7 0-0.9-0.1-1.6-0.3-2.9l-2.1 2.8c0-4.8-1.1-6.8-3.8-6.8-0.3 0-0.6 0-1.2 0.2l0.6-1.3c-0.8-0.2-1.2-0.3-1.8-0.3-2.5 0-5.2 1.7-6.8 4.4-1.4 2.3-2.3 5-2.3 7.3 0 1.4 0.3 2.4 1.2 3.9zm5.8-9.2l-3.2 0.5c0.7-2.2 2.2-3.5 4-3.5 0.4 0 0.7 0 1.3 0.3l-1.1 1.9c0.9-0.7 1.3-0.9 2-0.9 0.8 0 1.5 0.4 1.7 1 0.2 0.4 0.3 0.6 0.3 1.6l-5.8 1zm-3.4 6.1c-0.4-1-0.4-1.4-0.4-2.1 0-0.1 0-0.2 0-0.3l2.3-0.5zm4.2-14.8l1.7-0.3c1.2-1.4 2.2-2.9 3.1-4.8l-3 0.7zm1.8 1.3l2.6-0.4 4.1-5-4.6 1z"/>
	</g>
</svg>